<mxfile host="65bd71144e">
    <diagram id="jWoefpkfLMJP-2KTQsKN" name="Page-1">
        <mxGraphModel dx="1714" dy="676" grid="1" gridSize="10" guides="1" tooltips="1" connect="1" arrows="1" fold="1" page="1" pageScale="1" pageWidth="850" pageHeight="1100" background="#F1FAEE" math="0" shadow="0">
            <root>
                <mxCell id="0"/>
                <mxCell id="1" parent="0"/>
                <mxCell id="4" style="edgeStyle=orthogonalEdgeStyle;curved=0;rounded=1;sketch=0;orthogonalLoop=1;jettySize=auto;html=1;exitX=0.5;exitY=1;exitDx=0;exitDy=0;entryX=0.5;entryY=0;entryDx=0;entryDy=0;fontColor=#1D3557;strokeColor=#6F0000;fillColor=#a20025;" edge="1" parent="1" source="2" target="3">
                    <mxGeometry relative="1" as="geometry"/>
                </mxCell>
                <mxCell id="2" value="class Enemy&lt;br&gt;(pygame.sprite.&lt;br&gt;Sprite):" style="rounded=1;whiteSpace=wrap;html=1;sketch=0;fontColor=#ffffff;strokeColor=#2D7600;fillColor=#60a917;arcSize=50;" vertex="1" parent="1">
                    <mxGeometry x="365" y="40" width="120" height="60" as="geometry"/>
                </mxCell>
                <mxCell id="47" style="edgeStyle=orthogonalEdgeStyle;curved=0;rounded=1;sketch=0;orthogonalLoop=1;jettySize=auto;html=1;exitX=0.5;exitY=1;exitDx=0;exitDy=0;entryX=0.5;entryY=0;entryDx=0;entryDy=0;fontColor=#1D3557;strokeColor=#6F0000;fillColor=#a20025;" edge="1" parent="1" source="3" target="46">
                    <mxGeometry relative="1" as="geometry"/>
                </mxCell>
                <mxCell id="3" value="def __init__(self, x, y):" style="rounded=1;whiteSpace=wrap;html=1;sketch=0;fontColor=#ffffff;strokeColor=#2D7600;fillColor=#60a917;arcSize=50;" vertex="1" parent="1">
                    <mxGeometry x="365" y="140" width="120" height="60" as="geometry"/>
                </mxCell>
                <mxCell id="10" style="edgeStyle=orthogonalEdgeStyle;curved=0;rounded=1;sketch=0;orthogonalLoop=1;jettySize=auto;html=1;exitX=0.5;exitY=1;exitDx=0;exitDy=0;entryX=0.5;entryY=0;entryDx=0;entryDy=0;fontColor=#1D3557;strokeColor=#6F0000;fillColor=#a20025;exitPerimeter=0;" edge="1" parent="1" source="41" target="9">
                    <mxGeometry relative="1" as="geometry">
                        <mxPoint x="425.3299999999999" y="420" as="sourcePoint"/>
                    </mxGeometry>
                </mxCell>
                <mxCell id="12" style="edgeStyle=orthogonalEdgeStyle;curved=0;rounded=1;sketch=0;orthogonalLoop=1;jettySize=auto;html=1;exitX=0.5;exitY=1;exitDx=0;exitDy=0;entryX=0.5;entryY=0;entryDx=0;entryDy=0;fontColor=#1D3557;strokeColor=#6F0000;fillColor=#a20025;" edge="1" parent="1" source="9" target="11">
                    <mxGeometry relative="1" as="geometry"/>
                </mxCell>
                <mxCell id="9" value="self.rect = self.image.get_rect()" style="rounded=0;whiteSpace=wrap;html=1;sketch=0;fontColor=#ffffff;strokeColor=#2D7600;fillColor=#60a917;" vertex="1" parent="1">
                    <mxGeometry x="365" y="460" width="120" height="60" as="geometry"/>
                </mxCell>
                <mxCell id="14" style="edgeStyle=orthogonalEdgeStyle;curved=0;rounded=1;sketch=0;orthogonalLoop=1;jettySize=auto;html=1;exitX=0.5;exitY=1;exitDx=0;exitDy=0;entryX=0.5;entryY=0;entryDx=0;entryDy=0;fontColor=#1D3557;strokeColor=#6F0000;fillColor=#a20025;" edge="1" parent="1" source="11" target="13">
                    <mxGeometry relative="1" as="geometry"/>
                </mxCell>
                <mxCell id="11" value="self.rect.x = x" style="rounded=0;whiteSpace=wrap;html=1;sketch=0;fontColor=#ffffff;strokeColor=#2D7600;fillColor=#60a917;" vertex="1" parent="1">
                    <mxGeometry x="365.33000000000004" y="560" width="120" height="60" as="geometry"/>
                </mxCell>
                <mxCell id="16" style="edgeStyle=orthogonalEdgeStyle;curved=0;rounded=1;sketch=0;orthogonalLoop=1;jettySize=auto;html=1;exitX=0.5;exitY=1;exitDx=0;exitDy=0;entryX=0.5;entryY=0;entryDx=0;entryDy=0;fontColor=#1D3557;strokeColor=#6F0000;fillColor=#a20025;" edge="1" parent="1" source="13" target="15">
                    <mxGeometry relative="1" as="geometry"/>
                </mxCell>
                <mxCell id="13" value="self.rect.y = y" style="rounded=0;whiteSpace=wrap;html=1;sketch=0;fontColor=#ffffff;strokeColor=#2D7600;fillColor=#60a917;" vertex="1" parent="1">
                    <mxGeometry x="365.34000000000003" y="660" width="120" height="60" as="geometry"/>
                </mxCell>
                <mxCell id="18" style="edgeStyle=orthogonalEdgeStyle;curved=0;rounded=1;sketch=0;orthogonalLoop=1;jettySize=auto;html=1;exitX=0.5;exitY=1;exitDx=0;exitDy=0;entryX=0.5;entryY=0;entryDx=0;entryDy=0;fontColor=#1D3557;strokeColor=#6F0000;fillColor=#a20025;" edge="1" parent="1" source="15" target="17">
                    <mxGeometry relative="1" as="geometry"/>
                </mxCell>
                <mxCell id="15" value="self.move_direction = 1" style="rounded=0;whiteSpace=wrap;html=1;sketch=0;fontColor=#ffffff;strokeColor=#2D7600;fillColor=#60a917;" vertex="1" parent="1">
                    <mxGeometry x="365.34000000000003" y="760" width="120" height="60" as="geometry"/>
                </mxCell>
                <mxCell id="17" value="self.move_counter = 0" style="rounded=0;whiteSpace=wrap;html=1;sketch=0;fontColor=#ffffff;strokeColor=#2D7600;fillColor=#60a917;" vertex="1" parent="1">
                    <mxGeometry x="365.34000000000003" y="860" width="120" height="60" as="geometry"/>
                </mxCell>
                <mxCell id="20" style="edgeStyle=orthogonalEdgeStyle;curved=0;rounded=1;sketch=0;orthogonalLoop=1;jettySize=auto;html=1;exitX=0.5;exitY=1;exitDx=0;exitDy=0;entryX=0.5;entryY=0;entryDx=0;entryDy=0;fontColor=#1D3557;strokeColor=#6F0000;fillColor=#a20025;" edge="1" parent="1" source="21" target="22">
                    <mxGeometry relative="1" as="geometry"/>
                </mxCell>
                <mxCell id="21" value="class Enemy&lt;br&gt;(pygame.sprite.&lt;br&gt;Sprite):" style="rounded=1;whiteSpace=wrap;html=1;sketch=0;fontColor=#ffffff;strokeColor=#2D7600;fillColor=#60a917;arcSize=50;" vertex="1" parent="1">
                    <mxGeometry x="110" y="40" width="120" height="60" as="geometry"/>
                </mxCell>
                <mxCell id="27" style="edgeStyle=orthogonalEdgeStyle;curved=0;rounded=1;sketch=0;orthogonalLoop=1;jettySize=auto;html=1;exitX=0.5;exitY=1;exitDx=0;exitDy=0;entryX=0.5;entryY=0;entryDx=0;entryDy=0;fontColor=#1D3557;strokeColor=#6F0000;fillColor=#a20025;" edge="1" parent="1" source="22" target="24">
                    <mxGeometry relative="1" as="geometry"/>
                </mxCell>
                <mxCell id="22" value="def update(self):" style="rounded=1;whiteSpace=wrap;html=1;sketch=0;fontColor=#ffffff;strokeColor=#2D7600;fillColor=#60a917;arcSize=50;" vertex="1" parent="1">
                    <mxGeometry x="110" y="140" width="120" height="60" as="geometry"/>
                </mxCell>
                <mxCell id="29" style="edgeStyle=orthogonalEdgeStyle;curved=0;rounded=1;sketch=0;orthogonalLoop=1;jettySize=auto;html=1;exitX=0.5;exitY=1;exitDx=0;exitDy=0;fontColor=#1D3557;strokeColor=#6F0000;fillColor=#a20025;" edge="1" parent="1" source="24" target="28">
                    <mxGeometry relative="1" as="geometry"/>
                </mxCell>
                <mxCell id="24" value="self.rect.x += self.move_direction" style="rounded=0;whiteSpace=wrap;html=1;sketch=0;fontColor=#ffffff;strokeColor=#2D7600;fillColor=#60a917;" vertex="1" parent="1">
                    <mxGeometry x="110" y="240" width="120" height="60" as="geometry"/>
                </mxCell>
                <mxCell id="31" style="edgeStyle=orthogonalEdgeStyle;curved=0;rounded=1;sketch=0;orthogonalLoop=1;jettySize=auto;html=1;exitX=0.5;exitY=1;exitDx=0;exitDy=0;entryX=0.5;entryY=0;entryDx=0;entryDy=0;entryPerimeter=0;fontColor=#1D3557;strokeColor=#6F0000;fillColor=#a20025;" edge="1" parent="1" source="28" target="30">
                    <mxGeometry relative="1" as="geometry"/>
                </mxCell>
                <mxCell id="28" value="self.move_counter += 1" style="rounded=0;whiteSpace=wrap;html=1;sketch=0;fontColor=#ffffff;strokeColor=#2D7600;fillColor=#60a917;" vertex="1" parent="1">
                    <mxGeometry x="110" y="350" width="120" height="60" as="geometry"/>
                </mxCell>
                <mxCell id="34" style="edgeStyle=orthogonalEdgeStyle;curved=0;rounded=1;sketch=0;orthogonalLoop=1;jettySize=auto;html=1;exitX=0;exitY=0.5;exitDx=0;exitDy=0;exitPerimeter=0;entryX=0.5;entryY=0;entryDx=0;entryDy=0;fontColor=#1D3557;strokeColor=#6F0000;fillColor=#a20025;" edge="1" parent="1" source="30" target="33">
                    <mxGeometry relative="1" as="geometry"/>
                </mxCell>
                <mxCell id="30" value="if self.move_counter &gt; 50:" style="strokeWidth=2;html=1;shape=mxgraph.flowchart.decision;whiteSpace=wrap;rounded=0;sketch=0;fontColor=#ffffff;fillColor=#60a917;strokeColor=#2D7600;" vertex="1" parent="1">
                    <mxGeometry x="120" y="470" width="100" height="100" as="geometry"/>
                </mxCell>
                <mxCell id="36" style="edgeStyle=orthogonalEdgeStyle;curved=0;rounded=1;sketch=0;orthogonalLoop=1;jettySize=auto;html=1;exitX=0.5;exitY=1;exitDx=0;exitDy=0;entryX=0.5;entryY=0;entryDx=0;entryDy=0;fontColor=#1D3557;strokeColor=#6F0000;fillColor=#a20025;" edge="1" parent="1" source="33" target="35">
                    <mxGeometry relative="1" as="geometry"/>
                </mxCell>
                <mxCell id="33" value="self.move_direction *= -1" style="rounded=0;whiteSpace=wrap;html=1;sketch=0;fontColor=#ffffff;strokeColor=#2D7600;fillColor=#60a917;" vertex="1" parent="1">
                    <mxGeometry x="-30" y="580" width="120" height="60" as="geometry"/>
                </mxCell>
                <mxCell id="35" value="self.move_counter *= -1" style="rounded=0;whiteSpace=wrap;html=1;sketch=0;fontColor=#ffffff;strokeColor=#2D7600;fillColor=#60a917;" vertex="1" parent="1">
                    <mxGeometry x="-30" y="700" width="120" height="60" as="geometry"/>
                </mxCell>
                <mxCell id="37" value="True" style="text;strokeColor=none;fillColor=none;html=1;fontSize=24;fontStyle=1;verticalAlign=middle;align=center;rounded=0;sketch=0;fontColor=#1D3557;" vertex="1" parent="1">
                    <mxGeometry x="30" y="480" width="100" height="40" as="geometry"/>
                </mxCell>
                <mxCell id="41" value="self.image = pygame.image.load&lt;br&gt;('images/ghost.png')" style="strokeWidth=2;html=1;shape=mxgraph.flowchart.display;whiteSpace=wrap;rounded=0;sketch=0;fontColor=#ffffff;fillColor=#60a917;strokeColor=#2D7600;" vertex="1" parent="1">
                    <mxGeometry x="367.01" y="360" width="116.67" height="70" as="geometry"/>
                </mxCell>
                <mxCell id="48" style="edgeStyle=orthogonalEdgeStyle;curved=0;rounded=1;sketch=0;orthogonalLoop=1;jettySize=auto;html=1;exitX=0.5;exitY=1;exitDx=0;exitDy=0;entryX=0.5;entryY=0;entryDx=0;entryDy=0;entryPerimeter=0;fontColor=#1D3557;strokeColor=#6F0000;fillColor=#a20025;" edge="1" parent="1" source="46" target="41">
                    <mxGeometry relative="1" as="geometry"/>
                </mxCell>
                <mxCell id="46" value="pygame.&lt;br&gt;sprite.&lt;br&gt;Sprite.__init__&lt;br&gt;(self)" style="shape=parallelogram;html=1;strokeWidth=2;perimeter=parallelogramPerimeter;whiteSpace=wrap;rounded=1;arcSize=12;size=0.23;sketch=0;fontColor=#ffffff;fillColor=#60a917;strokeColor=#2D7600;" vertex="1" parent="1">
                    <mxGeometry x="367" y="230" width="116.66" height="70" as="geometry"/>
                </mxCell>
            </root>
        </mxGraphModel>
    </diagram>
</mxfile>